<svg xmlns="http://www.w3.org/2000/svg" xmlns:xlink="http://www.w3.org/1999/xlink" x="0px" y="0px" width="123.7px" height="123.7px" viewBox="0 0 123.7 123.7" style="overflow:visible;enable-background:new 0 0 123.7 123.7;" xml:space="preserve">
<style type="text/css">
	.st0{fill:#FFFFFF;}
	.st1{fill:#A7A7A7;}
	.st2{fill:#D6D6D6;}
	.st3{fill:#ECEAE9;}
	.st4{fill:#525252;}
</style>
<defs>
</defs>
<g>
	<path id="bolsas_de_fondo_plegado-2_1_" class="st0" d="M61.5,0h0.3c34.2,0,61.8,27.7,61.8,61.8l0,0c0,34.2-27.7,61.8-61.8,61.8   l0,0C27.7,123.7,0,96,0,61.8v-0.3C0,27.6,27.6,0,61.5,0C61.5,0,61.5,0,61.5,0z"></path>
	<g id="Grupo_1828_1_" transform="translate(7132.853 -570.697)">
		<path id="Trazado_127-2_1_" class="st1" d="M-7058.4,665.3l-1.5-9.2v-54.7l1.5-0.8l6.2,3.1l6.2-3.1v55.4l1.5,9.2H-7058.4z"></path>
		<path id="Trazado_128-2_1_" class="st2" d="M-7046.1,656.1v-55.4l-4.6,2.3v53.1l1.5,9.2h4.6L-7046.1,656.1z"></path>
		<path id="Trazado_129-2_1_" class="st3" d="M-7096.9,665.3l1.5-9.2v-55.4l6.2,3.1l6.2-3.1l6.2,3.1l6.2-3.1l6.2,3.1l6.2-3.1v55.4    l1.5,9.2L-7096.9,665.3z"></path>
		<path id="Trazado_130-2_1_" class="st2" d="M-7058.4,656.1L-7058.4,656.1v-55.4l-4.6,2.3v53.1l1.6,9.2h4.6L-7058.4,656.1z"></path>
		<path id="Trazado_132-2_1_" class="st4" d="M-7043.6,665.2l-1.5-9.2v-55.3c0-0.5-0.4-1-1-1c-0.2,0-0.3,0-0.4,0.1l-5.7,2.9    l-5.7-2.9h0c0,0,0,0-0.1,0l-0.1,0c0,0,0,0-0.1,0l-0.1,0l-0.1,0l-0.1,0h-0.1c0,0,0,0-0.1,0l-0.1,0c0,0,0,0-0.1,0l-0.1,0    c0,0,0,0-0.1,0l0,0c0,0,0,0-0.1,0l0,0l-5.7,2.9l-5.7-2.9c-0.3-0.1-0.6-0.1-0.9,0l-5.7,2.9l-5.7-2.9c-0.3-0.1-0.6-0.1-0.9,0    l-5.7,2.9l-5.7-2.9c-0.5-0.2-1.1,0-1.3,0.4c-0.1,0.1-0.1,0.3-0.1,0.4V656l-1.5,9.2c-0.1,0.5,0.3,1,0.8,1.1c0.1,0,0.1,0,0.2,0h52.3    c0.5,0,1-0.4,1-1C-7043.6,665.3-7043.6,665.2-7043.6,665.2L-7043.6,665.2z M-7095.7,664.4l1.2-7.3h24.4c0.5,0,1-0.4,1-1    c0-0.5-0.4-1-1-1c0,0,0,0,0,0h-24.2v-52.9l4.7,2.4c0.3,0.1,0.6,0.1,0.9,0l5.7-2.9l5.7,2.9c0.3,0.1,0.6,0.1,0.9,0l5.7-2.9l5.7,2.9    c0.3,0.1,0.6,0.1,0.9,0l4.7-2.4v52.9h-5.2c-0.5,0-1,0.4-1,1c0,0.5,0.4,1,1,1h5.3l1.2,7.2l0,0H-7095.7z M-7056,664.4l-0.2-1.5    l-1-5.8h5.6c0.5,0,1-0.4,1-1c0-0.5-0.4-1-1-1c0,0,0,0,0,0h-5.8v-52.9l4.8,2.4c0.3,0.1,0.6,0.1,0.9,0l4.7-2.4v53.8    c0,0.1,0,0.1,0,0.2l1.4,8.1H-7056z"></path>
	</g>
</g>
</svg>