<svg xmlns="http://www.w3.org/2000/svg" xmlns:xlink="http://www.w3.org/1999/xlink" x="0px" y="0px" width="123.7px" height="123.7px" viewBox="0 0 123.7 123.7" style="overflow:visible;enable-background:new 0 0 123.7 123.7;" xml:space="preserve">
<style type="text/css">
	.st0{fill:#FFFFFF;}
	.st1{fill:#B58572;}
	.st2{fill:#795040;}
	.st3{fill:#C19D8E;}
	.st4{fill:#382E2A;}
</style>
<defs>
</defs>
<g>
	<path id="bolsas_de_fondo_plegado_1_" class="st0" d="M61.5,0h0.3c34.2,0,61.8,27.7,61.8,61.8l0,0c0,34.2-27.7,61.8-61.8,61.8l0,0   C27.7,123.7,0,96,0,61.8v-0.3C0,27.6,27.6,0,61.5,0C61.5,0,61.5,0,61.5,0z"></path>
	<g id="Grupo_1827_1_" transform="translate(7204.55 -628.389)">
		<path id="Trazado_127_1_" class="st1" d="M-7130.1,723l-1.5-9.2v-54.7l1.5-0.8l6.2,3.1l6.2-3.1v55.4l1.5,9.2H-7130.1z"></path>
		<path id="Trazado_128_1_" class="st2" d="M-7117.8,713.8v-55.4l-4.6,2.3v53.1l1.5,9.2h4.6L-7117.8,713.8z"></path>
		<path id="Trazado_129_1_" class="st3" d="M-7168.6,723l1.5-9.2v-55.4l6.2,3.1l6.2-3.1l6.2,3.1l6.2-3.1l6.2,3.1l6.2-3.1v55.4    l1.5,9.2L-7168.6,723z"></path>
		<path id="Trazado_130_1_" class="st2" d="M-7130.1,713.8L-7130.1,713.8v-55.4l-4.6,2.3v53.1l1.6,9.2h4.6L-7130.1,713.8z"></path>
		<path id="Trazado_132_1_" class="st4" d="M-7115.3,722.9l-1.5-9.2v-55.3c0-0.5-0.4-1-1-1c-0.2,0-0.3,0-0.4,0.1l-5.7,2.9l-5.7-2.9    h0c0,0,0,0-0.1,0l-0.1,0c0,0,0,0-0.1,0l-0.1,0l-0.1,0l-0.1,0h-0.1c0,0,0,0-0.1,0l-0.1,0c0,0,0,0-0.1,0l-0.1,0c0,0,0,0-0.1,0l0,0    c0,0,0,0-0.1,0l0,0l-5.7,2.9l-5.7-2.9c-0.3-0.1-0.6-0.1-0.9,0l-5.7,2.9l-5.7-2.9c-0.3-0.1-0.6-0.1-0.9,0l-5.7,2.9l-5.7-2.9    c-0.5-0.2-1.1,0-1.3,0.4c-0.1,0.1-0.1,0.3-0.1,0.4v55.3l-1.5,9.2c-0.1,0.5,0.3,1,0.8,1.1c0.1,0,0.1,0,0.2,0h52.3c0.5,0,1-0.4,1-1    C-7115.3,723-7115.3,722.9-7115.3,722.9L-7115.3,722.9z M-7167.4,722l1.2-7.3h24.4c0.5,0,1-0.4,1-1c0-0.5-0.4-1-1-1c0,0,0,0,0,0    h-24.2v-52.9l4.7,2.4c0.3,0.1,0.6,0.1,0.9,0l5.7-2.9l5.7,2.9c0.3,0.1,0.6,0.1,0.9,0l5.7-2.9l5.7,2.9c0.3,0.1,0.6,0.1,0.9,0    l4.7-2.4v52.9h-5.2c-0.5,0-1,0.4-1,1c0,0.5,0.4,1,1,1h5.3l1.2,7.2l0,0L-7167.4,722z M-7127.7,722l-0.2-1.5l-1-5.8h5.6    c0.5,0,1-0.4,1-1c0-0.5-0.4-1-1-1c0,0,0,0,0,0h-5.8v-52.9l4.8,2.4c0.3,0.1,0.6,0.1,0.9,0l4.7-2.4v53.8c0,0.1,0,0.1,0,0.2l1.4,8.1    H-7127.7z"></path>
	</g>
</g>
</svg>