<svg xmlns="http://www.w3.org/2000/svg" xmlns:xlink="http://www.w3.org/1999/xlink" x="0px" y="0px" width="123.7px" height="123.7px" viewBox="0 0 123.7 123.7" style="overflow:visible;enable-background:new 0 0 123.7 123.7;" xml:space="preserve">
<style type="text/css">
	.st0{fill:#FFFFFF;}
	.st1{fill:#A7A7A7;}
	.st2{fill:#D6D6D6;}
	.st3{fill:#ECEAE9;}
	.st4{fill:#525252;}
	.st5{fill:#B58572;}
	.st6{fill:#795040;}
	.st7{fill:#C19D8E;}
	.st8{fill:#382E2A;}
</style>
<defs>
</defs>
<g>
	<path id="bolsas_de_fondo_plegado-3_1_" class="st0" d="M61.5,0h0.3c34.2,0,61.8,27.7,61.8,61.8l0,0c0,34.2-27.7,61.8-61.8,61.8   l0,0C27.7,123.7,0,96,0,61.8v-0.3C0,27.6,27.6,0,61.5,0C61.5,0,61.5,0,61.5,0z"></path>
	<g id="Grupo_1776_1_" transform="translate(7307.58 -466.389)">
		<g id="Grupo_1774_1_" transform="translate(-6571.103 501.724)">
			<g id="Grupo_1770_1_" transform="translate(0 0)">
				<path id="Trazado_127-3_1_" class="st1" d="M-650.1,54.7l-1.3-7.7V1.5l1.3-0.6l5.1,2.6l5.1-2.6V47l1.3,7.7H-650.1z"></path>
				<path id="Trazado_128-3_1_" class="st2" d="M-639.8,47V0.8l-3.9,1.9V47l1.3,7.7h3.9L-639.8,47z"></path>
				<path id="Trazado_129-3_1_" class="st3" d="M-682.2,54.7l1.3-7.7V0.8l5.1,2.6l5.1-2.6l5.1,2.6l5.1-2.6l5.1,2.6l5.1-2.6V47      l1.3,7.7L-682.2,54.7z"></path>
				<path id="Trazado_130-3_1_" class="st2" d="M-650.1,47L-650.1,47V0.8l-3.9,1.9V47l1.3,7.7h3.9L-650.1,47z"></path>
				<path id="Trazado_132-3_1_" class="st4" d="M-637.8,54.6L-639,47V0.8c0-0.4-0.4-0.8-0.8-0.8c-0.1,0-0.3,0-0.4,0.1l-4.8,2.4      l-4.8-2.4l0,0l-0.1,0l0,0l-0.1,0l0,0l-0.1,0l-0.1,0h-0.1l0,0l-0.1,0l0,0l-0.1,0l0,0c0,0,0,0-0.1,0l0,0l-4.8,2.4l-4.8-2.4      c-0.2-0.1-0.5-0.1-0.7,0l-4.8,2.4l-4.8-2.4c-0.2-0.1-0.5-0.1-0.7,0l-4.8,2.4l-4.8-2.4c-0.4-0.2-0.9,0-1.1,0.4      c-0.1,0.1-0.1,0.2-0.1,0.4V47l-1.3,7.6c-0.1,0.4,0.2,0.9,0.7,0.9c0,0,0.1,0,0.1,0h43.6c0.4,0,0.8-0.4,0.8-0.8      C-637.7,54.7-637.7,54.6-637.8,54.6L-637.8,54.6z M-681.2,53.9l1-6.1h20.3c0.4,0,0.8-0.4,0.8-0.8s-0.4-0.8-0.8-0.8h-20.2V2.1      l4,2c0.2,0.1,0.5,0.1,0.7,0l4.8-2.4l4.8,2.4c0.2,0.1,0.5,0.1,0.7,0l4.8-2.4l4.8,2.4c0.2,0.1,0.5,0.1,0.7,0l4-2v44.1h-4.3      c-0.4,0-0.8,0.4-0.8,0.8s0.4,0.8,0.8,0.8h4.4l1,6l0,0H-681.2z M-648.1,53.9l-0.2-1.2l-0.8-4.8h4.7c0.4,0,0.8-0.4,0.8-0.8      s-0.4-0.8-0.8-0.8h-4.8V2.1l4,2c0.2,0.1,0.5,0.1,0.7,0l4-2V47c0,0,0,0.1,0,0.1l1.1,6.8L-648.1,53.9z"></path>
			</g>
			<g id="Grupo_1772_1_" transform="translate(5.816 18.341)">
				<g id="Grupo_1767_1_">
					<g id="Grupo_1766_1_" transform="translate(0)">
						<path id="Trazado_126_1_" class="st4" d="M-663.7,8.8c0-1.8-0.6-3.6-1.7-5.1V1.2l0,0c0-0.5-0.4-0.8-0.8-0.8        c-0.5,0-0.8,0.4-0.8,0.8v0.7c-3.8-3-9.3-2.4-12.3,1.4c-0.4,0.6-0.8,1.2-1.1,1.9l-2.1,1.2c-0.4,0.2-0.6,0.7-0.3,1.1        c0.2,0.4,0.7,0.6,1.1,0.3c0,0,0,0,0,0l0.6-0.4c-0.7,4.8,2.6,9.2,7.4,9.9c0.4,0.1,0.8,0.1,1.3,0.1c0.3,0,0.6,0,0.9,0l2.1,1.2        c0.4,0.2,0.9,0.1,1.2-0.3c0.2-0.4,0.1-0.9-0.3-1.2c0,0,0,0,0,0l-0.6-0.4C-665.9,15.6-663.7,12.4-663.7,8.8L-663.7,8.8z         M-669.5,15.2l0.2-0.4c0.2-0.4,0.1-0.9-0.3-1.1c-0.4-0.2-0.9-0.1-1.1,0.3l-1.1,1.9c-0.2,0-0.4,0-0.7,0c-3.9,0-7.1-3.2-7.1-7.1        c0-0.2,0-0.4,0-0.7l0.2,0.4c0.2,0.4,0.7,0.6,1.1,0.3c0.4-0.2,0.6-0.7,0.3-1.1c0,0,0,0,0,0l-1.1-1.9c1.6-3.6,5.8-5.1,9.4-3.5        c0.4,0.2,0.8,0.4,1.2,0.7h-0.5c-0.5,0-0.8,0.4-0.8,0.8c0,0.5,0.4,0.8,0.8,0.8c0,0,0,0,0,0h2.2c2.3,3.2,1.5,7.6-1.7,9.9        C-668.7,14.8-669.1,15-669.5,15.2L-669.5,15.2z"></path>
					</g>
				</g>
			</g>
		</g>
		<g id="Grupo_1775_1_" transform="translate(-6599.572 498.389)">
			<g id="Grupo_1771_1_" transform="translate(0 0)">
				<path id="Trazado_127-4_1_" class="st5" d="M-650.1,54.7l-1.3-7.7V1.5l1.3-0.6l5.1,2.6l5.1-2.6V47l1.3,7.7H-650.1z"></path>
				<path id="Trazado_128-4_1_" class="st6" d="M-639.8,47V0.8l-3.9,1.9V47l1.3,7.7h3.9L-639.8,47z"></path>
				<path id="Trazado_129-4_1_" class="st7" d="M-682.2,54.7l1.3-7.7V0.8l5.1,2.6l5.1-2.6l5.1,2.6l5.1-2.6l5.1,2.6l5.1-2.6V47      l1.3,7.7L-682.2,54.7z"></path>
				<path id="Trazado_130-4_1_" class="st6" d="M-650.1,47L-650.1,47V0.8l-3.9,1.9V47l1.3,7.7h3.9L-650.1,47z"></path>
				<path id="Trazado_132-4_1_" class="st8" d="M-637.8,54.6L-639,47V0.8c0-0.4-0.4-0.8-0.8-0.8c-0.1,0-0.3,0-0.4,0.1l-4.8,2.4      l-4.8-2.4l0,0l-0.1,0l0,0l-0.1,0l0,0l-0.1,0l-0.1,0h-0.1l0,0l-0.1,0l0,0l-0.1,0l0,0c0,0,0,0-0.1,0l0,0l-4.8,2.4l-4.8-2.4      c-0.2-0.1-0.5-0.1-0.7,0l-4.8,2.4l-4.8-2.4c-0.2-0.1-0.5-0.1-0.7,0l-4.8,2.4l-4.8-2.4c-0.4-0.2-0.9,0-1.1,0.4      c-0.1,0.1-0.1,0.2-0.1,0.4V47l-1.3,7.6c-0.1,0.4,0.2,0.9,0.7,0.9c0,0,0.1,0,0.1,0h43.6c0.4,0,0.8-0.4,0.8-0.8      C-637.7,54.7-637.7,54.6-637.8,54.6L-637.8,54.6z M-681.2,53.9l1-6.1h20.3c0.4,0,0.8-0.4,0.8-0.8s-0.4-0.8-0.8-0.8h-20.2V2.1      l4,2c0.2,0.1,0.5,0.1,0.7,0l4.8-2.4l4.8,2.4c0.2,0.1,0.5,0.1,0.7,0l4.8-2.4l4.8,2.4c0.2,0.1,0.5,0.1,0.7,0l4-2v44.1h-4.3      c-0.4,0-0.8,0.4-0.8,0.8s0.4,0.8,0.8,0.8h4.4l1,6l0,0H-681.2z M-648.1,53.9l-0.2-1.2l-0.8-4.8h4.7c0.4,0,0.8-0.4,0.8-0.8      s-0.4-0.8-0.8-0.8h-4.8V2.1l4,2c0.2,0.1,0.5,0.1,0.7,0l4-2V47c0,0,0,0.1,0,0.1l1.1,6.8L-648.1,53.9z"></path>
			</g>
			<g id="Grupo_1773_1_" transform="translate(5.65 18.341)">
				<g id="Grupo_1767-2_1_">
					<g id="Grupo_1766-2_1_" transform="translate(0)">
						<path id="Trazado_126-2_1_" class="st8" d="M-663.7,8.8c0-1.8-0.6-3.6-1.7-5.1V1.2l0,0c0-0.5-0.4-0.8-0.8-0.8        c-0.5,0-0.8,0.4-0.8,0.8v0.7c-3.8-3-9.3-2.4-12.3,1.4c-0.4,0.6-0.8,1.2-1.1,1.9l-2.1,1.2c-0.4,0.2-0.6,0.7-0.3,1.1        c0.2,0.4,0.7,0.6,1.1,0.3c0,0,0,0,0,0l0.6-0.4c-0.7,4.8,2.6,9.2,7.4,9.9c0.4,0.1,0.8,0.1,1.3,0.1c0.3,0,0.6,0,0.9,0l2.1,1.2        c0.4,0.2,0.9,0.1,1.2-0.3c0.2-0.4,0.1-0.9-0.3-1.2c0,0,0,0,0,0l-0.6-0.4C-665.9,15.6-663.7,12.4-663.7,8.8L-663.7,8.8z         M-669.5,15.2l0.2-0.4c0.2-0.4,0.1-0.9-0.3-1.1c-0.4-0.2-0.9-0.1-1.1,0.3l-1.1,1.9c-0.2,0-0.4,0-0.7,0c-3.9,0-7.1-3.2-7.1-7.1        c0-0.2,0-0.4,0-0.7l0.2,0.4c0.2,0.4,0.7,0.6,1.1,0.3c0.4-0.2,0.6-0.7,0.3-1.1c0,0,0,0,0,0l-1.1-1.9c1.6-3.6,5.8-5.1,9.4-3.5        c0.4,0.2,0.8,0.4,1.2,0.7h-0.5c-0.5,0-0.8,0.4-0.8,0.8c0,0.5,0.4,0.8,0.8,0.8c0,0,0,0,0,0h2.2c2.3,3.2,1.5,7.6-1.7,9.9        C-668.7,14.8-669.1,15-669.5,15.2L-669.5,15.2z"></path>
					</g>
				</g>
			</g>
		</g>
	</g>
</g>
</svg>